<svg width="14" height="14" viewBox="0 0 14 14" xmlns="http://www.w3.org/2000/svg"><path d="M5.94623 12.507C5.94623 11.7883 5.94623 11.099 5.94623 10.439C5.94623 9.77167 5.94623 9.14467 5.94623 8.558V5.709C5.94623 5.12233 5.94623 4.499 5.94623 3.839C5.94623 3.17167 5.94623 2.48233 5.94623 1.771H8.05823C8.05823 2.48233 8.05823 3.17167 8.05823 3.839C8.05823 4.499 8.05823 5.12233 8.05823 5.709V8.558C8.05823 9.14467 8.05823 9.77167 8.05823 10.439C8.05823 11.099 8.05823 11.7883 8.05823 12.507H5.94623ZM1.76623 8.173V6.105C2.47757 6.105 3.1669 6.105 3.83423 6.105C4.50157 6.105 5.1249 6.105 5.70423 6.105H8.30023C8.87957 6.105 9.5029 6.105 10.1702 6.105C10.8376 6.105 11.5269 6.105 12.2382 6.105V8.173C11.5269 8.173 10.8376 8.173 10.1702 8.173C9.5029 8.173 8.87957 8.173 8.30023 8.173H5.70423C5.1249 8.173 4.50157 8.173 3.83423 8.173C3.1669 8.173 2.47757 8.173 1.76623 8.173Z"/></svg>