<svg width="24" height="24" viewBox="0 0 24 24" xmlns="http://www.w3.org/2000/svg"><path fill-rule="evenodd" clip-rule="evenodd" d="M15.3273 4.08491C15.7178 3.69439 16.3509 3.69439 16.7415 4.08491L19.9009 7.24433C20.2914 7.63486 20.2914 8.26802 19.9009 8.65855L10.0014 18.558C9.61087 18.9486 8.9777 18.9486 8.58718 18.558L5.42776 15.3986C5.03724 15.0081 5.03724 14.3749 5.42776 13.9844L15.3273 4.08491ZM16.0344 6.20623L7.54908 14.6915L9.29429 16.4367L17.7796 7.95144L16.0344 6.20623Z"/><path fill-rule="evenodd" clip-rule="evenodd" d="M18.0029 4.23004L16.7441 5.49771C16.355 5.88962 15.7218 5.89185 15.3299 5.50271C14.938 5.11357 14.9358 4.48041 15.3249 4.08851L16.587 2.81746C17.1098 2.29408 17.8193 2 18.559 2C19.2986 2 20.0078 2.29393 20.5306 2.81707L21.1647 3.45114C21.1648 3.45127 21.1645 3.45101 21.1647 3.45114C21.6878 3.9739 21.9821 4.68354 21.9821 5.42311C21.9821 6.16287 21.688 6.87228 21.1647 7.39508L21.1626 7.39719L19.8936 8.65718C19.5017 9.04633 18.8686 9.04409 18.4794 8.65219C18.0903 8.26028 18.0925 7.62712 18.4844 7.23798L19.7512 5.98008C19.7515 5.97981 19.751 5.98035 19.7512 5.98008C19.8986 5.8325 19.9821 5.63166 19.9821 5.42311C19.9821 5.21417 19.8991 5.0138 19.7512 4.86614L19.1164 4.23128C18.9687 4.08345 18.768 4 18.559 4C18.3505 4 18.1505 4.08275 18.0029 4.23004Z"/><path fill-rule="evenodd" clip-rule="evenodd" d="M6.66648 13.837C7.13845 14.1238 7.28854 14.7389 7.00172 15.2109L4.23373 19.7656L8.77363 16.9972C9.24516 16.7097 9.86051 16.8588 10.148 17.3303C10.4356 17.8019 10.2864 18.4172 9.81491 18.7047L4.77732 21.7767C4.74052 21.7991 4.7023 21.8192 4.66291 21.8367C3.94689 22.155 3.10877 21.9994 2.55468 21.4453C2.0006 20.8913 1.84502 20.0531 2.16334 19.3371C2.18064 19.2982 2.20042 19.2604 2.22254 19.224L5.29258 14.1722C5.5794 13.7003 6.19452 13.5502 6.66648 13.837Z"/></svg>