<svg width="24" height="24" viewBox="0 0 24 24" xmlns="http://www.w3.org/2000/svg">^<path fill-rule="evenodd" clip-rule="evenodd" d="M4.29289 2.29289C4.48043 2.10536 4.73478 2 5 2H19C19.5523 2 20 2.44772 20 3V21C20 21.3688 19.797 21.7077 19.4719 21.8817C19.1467 22.0557 18.7522 22.0366 18.4453 21.8321L16.1274 20.2868L14.7071 21.7071C14.3166 22.0976 13.6834 22.0976 13.2929 21.7071L12 20.4142L10.7071 21.7071C10.3166 22.0976 9.68342 22.0976 9.29289 21.7071L7.87258 20.2868L5.5547 21.8321C5.24784 22.0366 4.8533 22.0557 4.52814 21.8817C4.20298 21.7077 4 21.3688 4 21V3C4 2.73478 4.10536 2.48043 4.29289 2.29289ZM6 4V19.1315L7.4453 18.1679C7.84192 17.9035 8.37004 17.9558 8.70711 18.2929L10 19.5858L11.2929 18.2929C11.6834 17.9024 12.3166 17.9024 12.7071 18.2929L14 19.5858L15.2929 18.2929C15.63 17.9558 16.1581 17.9035 16.5547 18.1679L18 19.1315V4H6Z"/></svg>