<svg width="24" height="24" viewBox="0 0 24 24" xmlns="http://www.w3.org/2000/svg"><path fill-rule="evenodd" clip-rule="evenodd" d="M9.87871 3.70711C11.0503 2.53554 12.9498 2.53554 14.1214 3.70711L21.7071 11.2929C21.9931 11.5789 22.0787 12.009 21.9239 12.3827C21.7691 12.7564 21.4045 13 21 13H20V19C20 20.6569 18.6569 22 17 22H14C13.4477 22 13 21.5523 13 21V16H11V21C11 21.5523 10.5523 22 10 22H7.00003C5.34317 22 4.00003 20.6569 4.00003 19V13H3.00003C2.59557 13 2.23093 12.7564 2.07615 12.3827C1.92137 12.009 2.00692 11.5789 2.29292 11.2929L9.87871 3.70711ZM5.35094 11.0633C5.73013 11.2054 6.00003 11.5712 6.00003 12V19C6.00003 19.5523 6.44774 20 7.00003 20H9.00003V15C9.00003 14.4477 9.44774 14 10 14H14C14.5523 14 15 14.4477 15 15V20H17C17.5523 20 18 19.5523 18 19V12C18 11.5712 18.2699 11.2054 18.6491 11.0633L12.7071 5.12132C12.3166 4.7308 11.6834 4.7308 11.2929 5.12132L5.35094 11.0633Z"/></svg>