<svg width="24" height="24" viewBox="0 0 24 24" xmlns="http://www.w3.org/2000/svg"><path fill-rule="evenodd" clip-rule="evenodd" d="M17.5813 4.18628C18.0307 4.50729 18.1348 5.13184 17.8137 5.58125L7.81375 19.5813C7.49274 20.0307 6.86819 20.1348 6.41878 19.8137C5.96937 19.4927 5.86527 18.8682 6.18628 18.4188L16.1863 4.41878C16.5073 3.96937 17.1318 3.86527 17.5813 4.18628Z"/><path fill-rule="evenodd" clip-rule="evenodd" d="M6 5.99994C4.89543 5.99994 4 6.89537 4 7.99994C4 9.10451 4.89543 9.99994 6 9.99994C7.10457 9.99994 8 9.10451 8 7.99994C8 6.89537 7.10457 5.99994 6 5.99994ZM2 7.99994C2 5.7908 3.79086 3.99994 6 3.99994C8.20914 3.99994 10 5.7908 10 7.99994C10 10.2091 8.20914 11.9999 6 11.9999C3.79086 11.9999 2 10.2091 2 7.99994Z"/><path fill-rule="evenodd" clip-rule="evenodd" d="M18 14C16.8954 14 16 14.8954 16 16C16 17.1046 16.8954 18 18 18C19.1046 18 20 17.1046 20 16C20 14.8954 19.1046 14 18 14ZM14 16C14 13.7909 15.7909 12 18 12C20.2091 12 22 13.7909 22 16C22 18.2091 20.2091 20 18 20C15.7909 20 14 18.2091 14 16Z"/></svg>