<svg width="24" height="24" viewBox="0 0 24 24" xmlns="http://www.w3.org/2000/svg"><path fill-rule="evenodd" clip-rule="evenodd" d="M5 10C4.44772 10 4 10.4477 4 11V17C4 17.5523 4.44772 18 5 18H6V17C6 16.4477 6.44772 16 7 16H17C17.5523 16 18 16.4477 18 17V18H19C19.5523 18 20 17.5523 20 17V11C20 10.4477 19.5523 10 19 10H5ZM16 18V19C16 19.5523 16.4477 20 17 20H19C20.6569 20 22 18.6569 22 17V11C22 9.34315 20.6569 8 19 8H5C3.34315 8 2 9.34315 2 11V17C2 18.6569 3.34315 20 5 20H7C7.55228 20 8 19.5523 8 19V18H16Z"/><path fill-rule="evenodd" clip-rule="evenodd" d="M6 3C6 2.44772 6.44772 2 7 2H17C17.5523 2 18 2.44772 18 3V9C18 9.55228 17.5523 10 17 10H7C6.44772 10 6 9.55228 6 9V3ZM8 4V8H16V4H8Z"/><path fill-rule="evenodd" clip-rule="evenodd" d="M6 17C6 16.4477 6.44772 16 7 16H17C17.5523 16 18 16.4477 18 17V21C18 21.5523 17.5523 22 17 22H7C6.44772 22 6 21.5523 6 21V17ZM8 18V20H16V18H8Z"/><path fill-rule="evenodd" clip-rule="evenodd" d="M16 13C16 12.4477 16.4477 12 17 12C17.5523 12 18 12.4477 18 13C18 13.5523 17.5523 14 17 14C16.4477 14 16 13.5523 16 13Z"/></svg>