<svg width="24" height="24" viewBox="0 0 24 24" xmlns="http://www.w3.org/2000/svg"><path fill-rule="evenodd" clip-rule="evenodd" d="M8.5 3.5C5.73868 3.5 3.5 5.73868 3.5 8.5C3.5 11.262 5.7386 13.5 8.5 13.5C11.2621 13.5 13.5 11.2621 13.5 8.5C13.5 5.7386 11.262 3.5 8.5 3.5ZM1.5 8.5C1.5 4.63412 4.63412 1.5 8.5 1.5C12.3668 1.5 15.5 4.6342 15.5 8.5C15.5 12.3667 12.3667 15.5 8.5 15.5C4.6342 15.5 1.5 12.3668 1.5 8.5Z"/><path fill-rule="evenodd" clip-rule="evenodd" d="M15.5458 15.5478C16.3273 14.7663 17.5935 14.7663 18.375 15.5478L21.91 19.0838C21.9101 19.0838 21.91 19.0837 21.91 19.0838C22.6907 19.8645 22.6923 21.1307 21.91 21.912C21.1287 22.6943 19.8625 22.6927 19.0818 21.912L15.5458 18.376C14.7648 17.595 14.767 16.3286 15.5458 15.5478Z"/><path fill-rule="evenodd" clip-rule="evenodd" d="M12.2929 12.2929C12.6834 11.9024 13.3166 11.9024 13.7071 12.2929L16.9669 15.5527C17.3574 15.9432 17.3574 16.5764 16.9669 16.9669C16.5764 17.3574 15.9432 17.3574 15.5527 16.9669L12.2929 13.7071C11.9024 13.3166 11.9024 12.6834 12.2929 12.2929Z"/></svg>