<svg xmlns="http://www.w3.org/2000/svg" xmlns:xlink="http://www.w3.org/1999/xlink" style="width: 0; height: 0; visibility: hidden; position: absolute;" aria-hidden="true"><symbol  viewBox='0 0 16 16' id='search'>
    <path fill-rule="evenodd" clip-rule="evenodd" d="M8.5 3.5C5.73868 3.5 3.5 5.73868 3.5 8.5C3.5 11.262 5.7386 13.5 8.5 13.5C11.2621 13.5 13.5 11.2621 13.5 8.5C13.5 5.7386 11.262 3.5 8.5 3.5ZM1.5 8.5C1.5 4.63412 4.63412 1.5 8.5 1.5C12.3668 1.5 15.5 4.6342 15.5 8.5C15.5 12.3667 12.3667 15.5 8.5 15.5C4.6342 15.5 1.5 12.3668 1.5 8.5Z"></path><path fill-rule="evenodd" clip-rule="evenodd" d="M15.5458 15.5478C16.3273 14.7663 17.5935 14.7663 18.375 15.5478L21.91 19.0838C21.9101 19.0838 21.91 19.0837 21.91 19.0838C22.6907 19.8645 22.6923 21.1307 21.91 21.912C21.1287 22.6943 19.8625 22.6927 19.0818 21.912L15.5458 18.376C14.7648 17.595 14.767 16.3286 15.5458 15.5478Z"></path><path fill-rule="evenodd" clip-rule="evenodd" d="M12.2929 12.2929C12.6834 11.9024 13.3166 11.9024 13.7071 12.2929L16.9669 15.5527C17.3574 15.9432 17.3574 16.5764 16.9669 16.9669C16.5764 17.3574 15.9432 17.3574 15.5527 16.9669L12.2929 13.7071C11.9024 13.3166 11.9024 12.6834 12.2929 12.2929Z"></path>
  </symbol><symbol  viewBox='0 0 16 16' id='zoom-out-line'>
    <path d="M12.0207 11.078L14.876 13.9327L13.9327 14.876L11.078 12.0207C10.0159 12.8722 8.6947 13.3353 7.33337 13.3334C4.02137 13.3334 1.33337 10.6454 1.33337 7.33337C1.33337 4.02137 4.02137 1.33337 7.33337 1.33337C10.6454 1.33337 13.3334 4.02137 13.3334 7.33337C13.3353 8.6947 12.8722 10.0159 12.0207 11.078ZM10.6834 10.5834C11.5294 9.71329 12.0019 8.54699 12 7.33337C12 4.7547 9.91137 2.66671 7.33337 2.66671C4.7547 2.66671 2.66671 4.7547 2.66671 7.33337C2.66671 9.91137 4.7547 12 7.33337 12C8.54699 12.0019 9.71329 11.5294 10.5834 10.6834L10.6834 10.5834ZM4.6667 6.6667H10V8.00003H4.6667V6.6667Z"></path>
  </symbol></svg>