<svg xmlns="http://www.w3.org/2000/svg" xmlns:xlink="http://www.w3.org/1999/xlink" style="width: 0; height: 0; visibility: hidden; position: absolute;" aria-hidden="true"><symbol  viewBox='0 0 16 16' id='align-right'>
    <path fill-rule="evenodd" clip-rule="evenodd" d="M15.9991 13.0039L9.99907 12.9911L9.99054 16.9911L15.9905 17.0039L15.9991 13.0039Z" fill-opacity="0.5"></path><path fill-rule="evenodd" clip-rule="evenodd" d="M19.978 18.0021L20.0036 6.00214L18.0036 5.99788L17.978 17.9979L19.978 18.0021Z"></path><path fill-rule="evenodd" clip-rule="evenodd" d="M3.9964 10.9851L15.9964 11.0107L16.0049 7.0107L4.00493 6.98512L3.9964 10.9851Z"></path>
  </symbol><symbol  viewBox='0 0 16 16' id='align-top'>
    <path fill-rule="evenodd" clip-rule="evenodd" d="M13.0352 7.98797L13.0374 13.988L17.0374 13.9865L17.0352 7.98653L13.0352 7.98797Z" fill-opacity="0.5"></path><path fill-rule="evenodd" clip-rule="evenodd" d="M17.9996 4.01189L5.99963 4.01837L6.00038 6.01837L18.0004 6.01189L17.9996 4.01189Z"></path><path fill-rule="evenodd" clip-rule="evenodd" d="M11.0374 19.9864L11.0321 7.98637L7.03207 7.98813L7.03736 19.9881L11.0374 19.9864Z"></path>
  </symbol><symbol  viewBox='0 0 16 16' id='apple-watch'>
    <path fill-rule="evenodd" clip-rule="evenodd" d="M16.4975 5.02988C16.4973 5.07798 16.4959 5.12581 16.4934 5.17335C17.662 5.58332 18.5 6.69628 18.5 8.00496V9.00493H19.5V13.0049H18.5V16.005C18.5 17.3129 17.663 18.4254 16.4953 18.8359C16.4984 18.8919 16.5 18.9482 16.5 19.005C16.5 20.6618 15.1569 22.005 13.5 22.005H9.5C7.84315 22.005 6.5 20.6618 6.5 19.005C6.5 18.9482 6.50158 18.8919 6.50468 18.8359C5.33705 18.4254 4.5 17.3129 4.5 16.005V8.00496C4.5 6.69767 5.33618 5.58568 6.50286 5.17465C6.49907 5.11032 6.4973 5.04546 6.49763 4.98011C6.50587 3.32328 7.85569 1.98683 9.51252 1.99508L13.5125 2.01499C15.1693 2.02324 16.5058 3.37305 16.4975 5.02988ZM8.49764 5.00496H14.4975C14.4922 4.45954 14.0498 4.01769 13.5025 4.01496L9.50257 3.99505C8.95029 3.99231 8.50035 4.43779 8.4976 4.99006L8.49764 5.00496ZM15.7049 7.02596L11.4846 7.00496H7.5C6.94772 7.00496 6.5 7.45267 6.5 8.00496V16.005C6.5 16.5568 6.94696 17.0042 7.4986 17.005H15.5014C16.053 17.0042 16.5 16.5568 16.5 16.005V8.00496C16.5 7.52289 16.1589 7.12049 15.7049 7.02596ZM8.5 19.005C8.5 19.5572 8.94772 20.005 9.5 20.005H13.5C14.0523 20.005 14.5 19.5572 14.5 19.005H8.5Z"></path>
  </symbol><symbol  viewBox='0 0 16 16' id='arrow-left'>
    <path fill-rule="evenodd" clip-rule="evenodd" d="M4 12C4 11.4477 4.44772 11 5 11H19C19.5523 11 20 11.4477 20 12C20 12.5523 19.5523 13 19 13H5C4.44772 13 4 12.5523 4 12Z"></path><path fill-rule="evenodd" clip-rule="evenodd" d="M12.7071 4.29289C13.0976 4.68342 13.0976 5.31658 12.7071 5.70711L6.41421 12L12.7071 18.2929C13.0976 18.6834 13.0976 19.3166 12.7071 19.7071C12.3166 20.0976 11.6834 20.0976 11.2929 19.7071L4.29289 12.7071C3.90237 12.3166 3.90237 11.6834 4.29289 11.2929L11.2929 4.29289C11.6834 3.90237 12.3166 3.90237 12.7071 4.29289Z"></path>
  </symbol><symbol  viewBox='0 0 16 16' id='arrow-long-down-l'>
    <path d="M8.99801 0.972107V2.97211H11.9983L10.998 2.97299L11.0124 19.2135L9.16751 17.379L7.75726 18.7972L12.0118 23.0279L16.2427 18.7734L14.8246 17.3632L13.0124 19.1856L12.998 2.97211H14.998V0.972107H8.99801Z"></path>
  </symbol><symbol  viewBox='0 0 16 16' id='arrow-long-up-c'>
    <path fill-rule="evenodd" clip-rule="evenodd" d="M7.75751 5.23078L12.0321 1.02029L16.2425 5.29492L14.8177 6.69842L13.0141 4.86736L12.9427 17.1555C14.1054 17.5732 14.9345 18.6881 14.9283 19.994C14.9204 21.6508 13.5709 22.9876 11.9141 22.9797C10.2572 22.9718 8.92049 21.6223 8.92836 19.9655C8.93456 18.6589 9.77508 17.5514 10.9427 17.1454L11.0142 4.83017L9.161 6.65563L7.75751 5.23078ZM11.9331 18.9797C11.3808 18.9771 10.931 19.4227 10.9283 19.975C10.9257 20.5273 11.3713 20.9771 11.9236 20.9797C12.4759 20.9823 12.9257 20.5367 12.9283 19.9845C12.9309 19.4322 12.4853 18.9824 11.9331 18.9797Z"></path>
  </symbol><symbol  viewBox='0 0 16 16' id='arrow-top-right-r'>
    <path d="M14 13.9633H16V7.96331H10V9.96331H12.5858L7.25623 15.2929L8.67044 16.7071L14 11.3775V13.9633Z"></path><path fill-rule="evenodd" clip-rule="evenodd" d="M23 19C23 21.2091 21.2091 23 19 23H5C2.79086 23 1 21.2091 1 19V5C1 2.79086 2.79086 1 5 1H19C21.2091 1 23 2.79086 23 5V19ZM19 21H5C3.89543 21 3 20.1046 3 19V5C3 3.89543 3.89543 3 5 3H19C20.1046 3 21 3.89543 21 5V19C21 20.1046 20.1046 21 19 21Z"></path>
  </symbol><symbol  viewBox='0 0 16 16' id='arrows-expand-left-alt'>
    <path d="M10.1005 2.10052V4.10052H5.51471L11.293 9.87878L9.87875 11.293L4.10046 5.51471L4.10046 10.1005H2.10046L2.10046 2.10052H10.1005Z"></path><path d="M21.8995 13.8995H19.8995V18.4853L14.1212 12.707L12.707 14.1213L18.4853 19.8995H13.8995V21.8995H21.8995V13.8995Z"></path><path d="M16.2426 9.1716L14.8284 7.75739L7.7573 14.8285L9.17151 16.2427L16.2426 9.1716Z"></path>
  </symbol><symbol  viewBox='0 0 16 16' id='arrows-shrink-h'>
    <path d="M1 7H3V17H1V7Z"></path><path d="M8.44769 7.75732L9.86191 9.17154L8.03344 11H15.9664L14.138 9.17154L15.5522 7.75732L19.7948 12L15.5522 16.2426L14.138 14.8284L15.9664 13H8.03354L9.86194 14.8284L8.44773 16.2426L4.20505 12L8.44769 7.75732Z"></path><path d="M23 7H21V17H23V7Z"></path>
  </symbol><symbol  viewBox='0 0 16 16' id='assign'>
    <path d="M6 6H10V4H4V10H6V6Z"></path><path d="M10 18H6V14H4V20H10V18Z"></path><path d="M14 6H18V10H20V4H14V6Z"></path><path d="M14 18H18V14H20V20H14V18Z"></path><path d="M12 8.5C10.067 8.5 8.5 10.067 8.5 12C8.5 13.933 10.067 15.5 12 15.5C13.933 15.5 15.5 13.933 15.5 12C15.5 10.067 13.933 8.5 12 8.5Z"></path>
  </symbol><symbol  viewBox='0 0 16 16' id='bag'>
    <path fill-rule="evenodd" clip-rule="evenodd" d="M2.9362 7.85751C3.01096 6.8109 3.88184 6 4.93112 6H19.0689C20.1182 6 20.989 6.81089 21.0638 7.85751L21.9209 19.8575C21.9996 20.9593 21.1703 21.9162 20.0685 21.9949C20.0211 21.9983 19.9736 22 19.926 22H4.07397C2.96941 22 2.07397 21.1046 2.07397 20C2.07397 19.9525 2.07567 19.9049 2.07906 19.8575L2.9362 7.85751ZM19.0689 8H4.93112L4.07397 20H19.926L19.0689 8Z"></path><path fill-rule="evenodd" clip-rule="evenodd" d="M7 7C7 4.23858 9.23858 2 12 2C14.7614 2 17 4.23858 17 7V10C17 10.5523 16.5523 11 16 11C15.4477 11 15 10.5523 15 10V7C15 5.34315 13.6569 4 12 4C10.3431 4 9 5.34315 9 7V10C9 10.5523 8.55228 11 8 11C7.44772 11 7 10.5523 7 10V7Z"></path>
  </symbol><symbol  viewBox='0 0 16 16' id='button-arrow-down'>
    <path fill-rule="evenodd" clip-rule="evenodd" d="M1.34781 1.29289C1.81156 0.90237 2.56344 0.90237 3.02719 1.29289L10.5 7.58579L17.9728 1.29289C18.4366 0.902369 19.1884 0.902369 19.6522 1.29289C20.1159 1.68342 20.1159 2.31658 19.6522 2.70711L11.3397 9.70711C10.8759 10.0976 10.1241 10.0976 9.66031 9.70711L1.34781 2.70711C0.884063 2.31658 0.884063 1.68342 1.34781 1.29289Z" stroke-linecap="round" stroke-linejoin="round"></path>
  </symbol><symbol  viewBox='0 0 16 16' id='button-arrow-left'>
    <path fill-rule="evenodd" clip-rule="evenodd" d="M7.73965 0.256282C8.08678 0.59799 8.08678 1.15201 7.73965 1.49372L2.14597 7L7.73965 12.5063C8.08678 12.848 8.08678 13.402 7.73965 13.7437C7.39252 14.0854 6.8297 14.0854 6.48257 13.7437L0.26035 7.61872C-0.0867832 7.27701 -0.0867832 6.72299 0.26035 6.38128L6.48257 0.256282C6.8297 -0.0854272 7.39252 -0.0854272 7.73965 0.256282Z"></path>
  </symbol><symbol  viewBox='0 0 16 16' id='button-arrow-right'>
    <path fill-rule="evenodd" clip-rule="evenodd" d="M0.26035 13.7437C-0.0867836 13.402 -0.0867837 12.848 0.26035 12.5063L5.85403 7L0.260349 1.49372C-0.0867847 1.15201 -0.0867847 0.597991 0.260348 0.256282C0.607481 -0.0854269 1.17029 -0.0854269 1.51743 0.256282L7.73965 6.38128C8.08678 6.72299 8.08678 7.27701 7.73965 7.61872L1.51743 13.7437C1.1703 14.0854 0.607482 14.0854 0.26035 13.7437Z"></path>
  </symbol><symbol  viewBox='0 0 16 16' id='button-plus'>
    <path d="M5.94623 12.507C5.94623 11.7883 5.94623 11.099 5.94623 10.439C5.94623 9.77167 5.94623 9.14467 5.94623 8.558V5.709C5.94623 5.12233 5.94623 4.499 5.94623 3.839C5.94623 3.17167 5.94623 2.48233 5.94623 1.771H8.05823C8.05823 2.48233 8.05823 3.17167 8.05823 3.839C8.05823 4.499 8.05823 5.12233 8.05823 5.709V8.558C8.05823 9.14467 8.05823 9.77167 8.05823 10.439C8.05823 11.099 8.05823 11.7883 8.05823 12.507H5.94623ZM1.76623 8.173V6.105C2.47757 6.105 3.1669 6.105 3.83423 6.105C4.50157 6.105 5.1249 6.105 5.70423 6.105H8.30023C8.87957 6.105 9.5029 6.105 10.1702 6.105C10.8376 6.105 11.5269 6.105 12.2382 6.105V8.173C11.5269 8.173 10.8376 8.173 10.1702 8.173C9.5029 8.173 8.87957 8.173 8.30023 8.173H5.70423C5.1249 8.173 4.50157 8.173 3.83423 8.173C3.1669 8.173 2.47757 8.173 1.76623 8.173Z"></path>
  </symbol><symbol  viewBox='0 0 16 16' id='check-square'>
    <path fill-rule="evenodd" clip-rule="evenodd" d="M5 4C4.44772 4 4 4.44772 4 5V19C4 19.5523 4.44772 20 5 20H19C19.5523 20 20 19.5523 20 19V5C20 4.44772 19.5523 4 19 4H5ZM2 5C2 3.34315 3.34315 2 5 2H19C20.6569 2 22 3.34315 22 5V19C22 20.6569 20.6569 22 19 22H5C3.34315 22 2 20.6569 2 19V5Z"></path><path fill-rule="evenodd" clip-rule="evenodd" d="M17.7071 8.29289C18.0976 8.68342 18.0976 9.31658 17.7071 9.70711L12.1213 15.2929C10.9497 16.4645 9.05025 16.4645 7.87868 15.2929L6.29289 13.7071C5.90237 13.3166 5.90237 12.6834 6.29289 12.2929C6.68342 11.9024 7.31658 11.9024 7.70711 12.2929L9.29289 13.8787C9.68342 14.2692 10.3166 14.2692 10.7071 13.8787L16.2929 8.29289C16.6834 7.90237 17.3166 7.90237 17.7071 8.29289Z"></path>
  </symbol><symbol  viewBox='0 0 16 16' id='check'>
    <path fill-rule="evenodd" clip-rule="evenodd" d="M17.7071 8.29289C18.0976 8.68342 18.0976 9.31658 17.7071 9.70711L12.1213 15.2929C10.9497 16.4645 9.05025 16.4645 7.87868 15.2929L6.29289 13.7071C5.90237 13.3166 5.90237 12.6834 6.29289 12.2929C6.68342 11.9024 7.31658 11.9024 7.70711 12.2929L9.29289 13.8787C9.68342 14.2692 10.3166 14.2692 10.7071 13.8787L16.2929 8.29289C16.6834 7.90237 17.3166 7.90237 17.7071 8.29289Z"></path>
  </symbol><symbol  viewBox='0 0 16 16' id='cloud'>
    <path fill-rule="evenodd" clip-rule="evenodd" d="M14.738 19.9964C14.8186 19.9988 14.8994 20 14.9806 20C19.3989 20 22.9806 16.4183 22.9806 12C22.9806 7.58172 19.3989 4 14.9806 4C12.4542 4 10.2013 5.17108 8.73522 7H7.51941C3.92956 7 1.01941 9.91015 1.01941 13.5C1.01941 17.0899 3.92956 20 7.51941 20H14.5194C14.5926 20 14.6654 19.9988 14.738 19.9964ZM16.6913 17.721C19.0415 16.9522 20.9806 14.6815 20.9806 12C20.9806 8.68629 18.2943 6 14.9806 6C11.6669 6 8.98059 8.68629 8.98059 12H6.98059C6.98059 10.9391 7.1871 9.92643 7.56211 9H7.51941C5.03413 9 3.01941 11.0147 3.01941 13.5C3.01941 15.9853 5.03413 18 7.51941 18H14.5194C15.0691 18 15.9041 17.9014 16.6913 17.721Z"></path>
  </symbol><symbol  viewBox='0 0 16 16' id='cross'>
    <path fill-rule="evenodd" clip-rule="evenodd" d="M20.7071 3.29289C21.0976 3.68342 21.0976 4.31658 20.7071 4.70711L4.70711 20.7071C4.31658 21.0976 3.68342 21.0976 3.29289 20.7071C2.90237 20.3166 2.90237 19.6834 3.29289 19.2929L19.2929 3.29289C19.6834 2.90237 20.3166 2.90237 20.7071 3.29289Z"></path><path fill-rule="evenodd" clip-rule="evenodd" d="M3.29289 3.29289C3.68342 2.90237 4.31658 2.90237 4.70711 3.29289L20.7071 19.2929C21.0976 19.6834 21.0976 20.3166 20.7071 20.7071C20.3166 21.0976 19.6834 21.0976 19.2929 20.7071L3.29289 4.70711C2.90237 4.31658 2.90237 3.68342 3.29289 3.29289Z"></path>
  </symbol><symbol  viewBox='0 0 16 16' id='delete-trash'>
    <style type="text/css">.st0{fill-rule:evenodd;clip-rule:evenodd;fill:#1A1A1A;}</style><path class="st0" d="M9,17v-6c0-0.5,0.5-1,1-1s1,0.5,1,1v6c0,0.5-0.5,1-1,1S9,17.5,9,17z"></path><path class="st0" d="M13,17v-6c0-0.5,0.5-1,1-1s1,0.5,1,1v6c0,0.5-0.5,1-1,1S13,17.5,13,17z"></path><path class="st0" d="M20,6h-4V4.3C16,3.2,15.1,2,13.8,2h-3.6C8.9,2,8,3.2,8,4.3V6H4C3.5,6,3,6.5,3,7s0.5,1,1,1h1v11c0,1.7,1.3,3,3,3
	h8c1.7,0,3-1.3,3-3V8h1c0.5,0,1-0.5,1-1S20.5,6,20,6z M10,4.3c0-0.1,0-0.2,0.1-0.3c0,0,0.1-0.1,0.1-0.1h3.6c0,0,0.1,0,0.1,0.1
	c0,0,0.1,0.2,0.1,0.3V6h-4V4.3z M17,19c0,0.5-0.5,1-1,1H8c-0.5,0-1-0.5-1-1V8h10V19z"></path>
  </symbol><symbol  viewBox='0 0 16 16' id='dot'>
    <circle cx="3.89999" cy="3.5" r="3.5"></circle>
  </symbol><symbol  viewBox='0 0 16 16' id='edit'>
    <path fill-rule="evenodd" clip-rule="evenodd" d="M15.3273 4.08491C15.7178 3.69439 16.3509 3.69439 16.7415 4.08491L19.9009 7.24433C20.2914 7.63486 20.2914 8.26802 19.9009 8.65855L10.0014 18.558C9.61087 18.9486 8.9777 18.9486 8.58718 18.558L5.42776 15.3986C5.03724 15.0081 5.03724 14.3749 5.42776 13.9844L15.3273 4.08491ZM16.0344 6.20623L7.54908 14.6915L9.29429 16.4367L17.7796 7.95144L16.0344 6.20623Z"></path><path fill-rule="evenodd" clip-rule="evenodd" d="M18.0029 4.23004L16.7441 5.49771C16.355 5.88962 15.7218 5.89185 15.3299 5.50271C14.938 5.11357 14.9358 4.48041 15.3249 4.08851L16.587 2.81746C17.1098 2.29408 17.8193 2 18.559 2C19.2986 2 20.0078 2.29393 20.5306 2.81707L21.1647 3.45114C21.1648 3.45127 21.1645 3.45101 21.1647 3.45114C21.6878 3.9739 21.9821 4.68354 21.9821 5.42311C21.9821 6.16287 21.688 6.87228 21.1647 7.39508L21.1626 7.39719L19.8936 8.65718C19.5017 9.04633 18.8686 9.04409 18.4794 8.65219C18.0903 8.26028 18.0925 7.62712 18.4844 7.23798L19.7512 5.98008C19.7515 5.97981 19.751 5.98035 19.7512 5.98008C19.8986 5.8325 19.9821 5.63166 19.9821 5.42311C19.9821 5.21417 19.8991 5.0138 19.7512 4.86614L19.1164 4.23128C18.9687 4.08345 18.768 4 18.559 4C18.3505 4 18.1505 4.08275 18.0029 4.23004Z"></path><path fill-rule="evenodd" clip-rule="evenodd" d="M6.66648 13.837C7.13845 14.1238 7.28854 14.7389 7.00172 15.2109L4.23373 19.7656L8.77363 16.9972C9.24516 16.7097 9.86051 16.8588 10.148 17.3303C10.4356 17.8019 10.2864 18.4172 9.81491 18.7047L4.77732 21.7767C4.74052 21.7991 4.7023 21.8192 4.66291 21.8367C3.94689 22.155 3.10877 21.9994 2.55468 21.4453C2.0006 20.8913 1.84502 20.0531 2.16334 19.3371C2.18064 19.2982 2.20042 19.2604 2.22254 19.224L5.29258 14.1722C5.5794 13.7003 6.19452 13.5502 6.66648 13.837Z"></path>
  </symbol><symbol  viewBox='0 0 16 16' id='favorite'>
    <path d="M9.90687 7.86905L12 1.42705L14.0931 7.86905C14.2605 8.38408 14.7404 8.73278 15.282 8.73278H22.0555L16.5756 12.7142C16.1375 13.0325 15.9541 13.5967 16.1215 14.1117L18.2146 20.5537L12.7347 16.5723C12.2966 16.254 11.7034 16.254 11.2653 16.5723L5.78538 20.5537L7.87851 14.1117C8.04585 13.5967 7.86253 13.0325 7.42442 12.7142L1.94453 8.73278H8.71805C9.25958 8.73278 9.73952 8.38408 9.90687 7.86905Z" stroke-width="1.5" stroke-linejoin="round"></path>
  </symbol><symbol  viewBox='0 0 16 16' id='file'>
    <path fill-rule="evenodd" clip-rule="evenodd" d="M3 5C3 3.34315 4.34315 2 6 2H14C17.866 2 21 5.13401 21 9V19C21 20.6569 19.6569 22 18 22H6C4.34315 22 3 20.6569 3 19V5ZM13 4H6C5.44772 4 5 4.44772 5 5V19C5 19.5523 5.44772 20 6 20H18C18.5523 20 19 19.5523 19 19V9H13V4ZM18.584 7C17.9413 5.52906 16.6113 4.4271 15 4.10002V7H18.584Z"></path>
  </symbol><symbol  viewBox='0 0 16 16' id='folder-add'>
    <path d="M11 14.5V16.5H13V14.5H15V12.5H13V10.5H11V12.5H9V14.5H11Z"></path><path fill-rule="evenodd" clip-rule="evenodd" d="M4 1.5C2.89543 1.5 2 2.39543 2 3.5V4.5C2 4.55666 2.00236 4.61278 2.00698 4.66825C0.838141 5.07811 0 6.19118 0 7.5V19.5C0 21.1569 1.34315 22.5 3 22.5H21C22.6569 22.5 24 21.1569 24 19.5V7.5C24 5.84315 22.6569 4.5 21 4.5H11.874C11.4299 2.77477 9.86384 1.5 8 1.5H4ZM9.73244 4.5C9.38663 3.9022 8.74028 3.5 8 3.5H4V4.5H9.73244ZM3 6.5C2.44772 6.5 2 6.94772 2 7.5V19.5C2 20.0523 2.44772 20.5 3 20.5H21C21.5523 20.5 22 20.0523 22 19.5V7.5C22 6.94772 21.5523 6.5 21 6.5H3Z"></path>
  </symbol><symbol  viewBox='0 0 16 16' id='folder-remove'>
    <path d="M9 14.5V12.5H15V14.5H9Z"></path><path fill-rule="evenodd" clip-rule="evenodd" d="M4 1.5C2.89543 1.5 2 2.39543 2 3.5V4.5C2 4.55666 2.00236 4.61278 2.00698 4.66825C0.838141 5.07811 0 6.19118 0 7.5V19.5C0 21.1569 1.34315 22.5 3 22.5H21C22.6569 22.5 24 21.1569 24 19.5V7.5C24 5.84315 22.6569 4.5 21 4.5H11.874C11.4299 2.77477 9.86384 1.5 8 1.5H4ZM9.73244 4.5C9.38663 3.9022 8.74028 3.5 8 3.5H4V4.5H9.73244ZM3 6.5C2.44772 6.5 2 6.94772 2 7.5V19.5C2 20.0523 2.44772 20.5 3 20.5H21C21.5523 20.5 22 20.0523 22 19.5V7.5C22 6.94772 21.5523 6.5 21 6.5H3Z"></path>
  </symbol><symbol  viewBox='0 0 16 16' id='gear'>
    <g><g><path d="M337.852,209.27c1.271-8.035,1.913-16.19,1.913-24.336c0-8.145-0.642-16.3-1.913-24.336
			c7.503-6.647,12.858-15.384,15.386-25.289c3.278-12.85,1.432-26.251-5.2-37.738l-5.893-10.206
			c-8.997-15.582-25.774-25.262-43.783-25.262c-5.396,0-10.774,0.881-15.892,2.581c-12.739-10.362-26.866-18.529-42.158-24.371
			c-2.008-9.815-6.896-18.814-14.207-25.95C216.617,5.101,204.088,0,190.826,0h-11.785c-13.262,0-25.791,5.101-35.279,14.362
			c-7.311,7.136-12.2,16.135-14.208,25.949c-15.292,5.843-29.419,14.01-42.158,24.372c-5.118-1.7-10.495-2.581-15.893-2.581
			c-18.009,0-34.786,9.68-43.783,25.262L21.83,97.569c-6.632,11.486-8.479,24.888-5.201,37.738
			c2.527,9.905,7.882,18.643,15.385,25.29c-1.271,8.036-1.913,16.191-1.913,24.336c0,8.145,0.642,16.299,1.913,24.336
			c-7.503,6.646-12.858,15.383-15.386,25.289c-3.278,12.851-1.431,26.252,5.2,37.738l5.893,10.205
			c8.996,15.582,25.773,25.262,43.783,25.262c5.397,0,10.774-0.879,15.892-2.58c12.739,10.361,26.866,18.528,42.158,24.371
			c2.008,9.814,6.896,18.812,14.207,25.949c9.488,9.262,22.017,14.361,35.278,14.361l0,0h11.786c13.262,0,25.791-5.1,35.278-14.361
			c7.312-7.137,12.199-16.135,14.207-25.949c15.292-5.843,29.419-14.01,42.158-24.371c5.117,1.699,10.495,2.58,15.892,2.58
			c0.001,0,0,0,0.001,0c18.008,0,34.785-9.68,43.782-25.262l5.891-10.205c6.633-11.486,8.479-24.889,5.201-37.738
			C350.71,224.654,345.354,215.917,337.852,209.27z M311.926,157.837c1.883,8.874,2.838,17.991,2.838,27.097
			s-0.955,18.223-2.838,27.097c-1.1,5.179,1.183,10.487,5.697,13.253c11.884,7.281,15.732,22.441,8.763,34.516l-5.892,10.204
			c-4.545,7.872-13.024,12.761-22.131,12.761c-4.221,0-8.424-1.072-12.155-3.103c-4.659-2.534-10.408-1.853-14.346,1.7
			c-13.674,12.336-29.447,21.453-46.883,27.102c-5.041,1.633-8.505,6.266-8.644,11.562c-0.367,13.93-11.571,24.842-25.508,24.842
			h-11.786c-13.937,0-25.141-10.912-25.508-24.842c-0.14-5.297-3.603-9.93-8.644-11.562c-17.436-5.646-33.209-14.766-46.884-27.102
			c-2.352-2.121-5.349-3.219-8.375-3.219c-2.04,0-4.093,0.498-5.969,1.52c-3.785,2.059-7.875,3.104-12.155,3.104
			c-9.107,0-17.587-4.891-22.132-12.764l-5.893-10.205c-6.969-12.072-3.12-27.232,8.764-34.514
			c4.514-2.766,6.796-8.075,5.697-13.253c-1.883-8.874-2.838-17.991-2.838-27.097c0-9.104,0.955-18.222,2.838-27.096
			c1.099-5.178-1.183-10.487-5.696-13.253c-11.884-7.282-15.733-22.442-8.763-34.515l5.891-10.205
			C53.92,91.993,62.4,87.103,71.508,87.103c4.22,0,8.424,1.073,12.156,3.103c4.658,2.534,10.408,1.853,14.345-1.699
			c13.675-12.336,29.449-21.454,46.884-27.103c5.041-1.632,8.504-6.266,8.644-11.562c0.367-13.93,11.572-24.841,25.509-24.841
			h11.785c13.937,0,25.141,10.912,25.508,24.841c0.139,5.296,3.603,9.93,8.644,11.562c17.437,5.647,33.209,14.766,46.884,27.103
			c3.938,3.551,9.688,4.232,14.346,1.699c3.785-2.059,7.874-3.103,12.154-3.103c9.106,0,17.587,4.891,22.133,12.763l5.893,10.205
			c6.969,12.072,3.12,27.232-8.764,34.514C313.108,147.35,310.826,152.659,311.926,157.837z"></path><path d="M184.934,74.939c-60.651,0-109.995,49.344-109.995,109.995c0,60.651,49.344,109.996,109.995,109.996
			c60.651,0,109.995-49.345,109.995-109.996C294.929,124.283,245.585,74.939,184.934,74.939z M184.934,269.93
			c-46.866,0-84.995-38.129-84.995-84.996c0-46.866,38.129-84.995,84.995-84.995s84.995,38.129,84.995,84.995
			C269.929,231.801,231.8,269.93,184.934,269.93z"></path></g></g>
  </symbol><symbol  viewBox='0 0 16 16' id='google'>
    <path d="M6 12C6 15.3137 8.68629 18 12 18C14.6124 18 16.8349 16.3304 17.6586 14H12V10H21.8047V14H21.8C20.8734 18.5645 16.8379 22 12 22C6.47715 22 2 17.5228 2 12C2 6.47715 6.47715 2 12 2C15.445 2 18.4831 3.742 20.2815 6.39318L17.0039 8.68815C15.9296 7.06812 14.0895 6 12 6C8.68629 6 6 8.68629 6 12Z"></path>
  </symbol><symbol  viewBox='0 0 16 16' id='hallow'>
    ^<path fill-rule="evenodd" clip-rule="evenodd" d="M4.29289 2.29289C4.48043 2.10536 4.73478 2 5 2H19C19.5523 2 20 2.44772 20 3V21C20 21.3688 19.797 21.7077 19.4719 21.8817C19.1467 22.0557 18.7522 22.0366 18.4453 21.8321L16.1274 20.2868L14.7071 21.7071C14.3166 22.0976 13.6834 22.0976 13.2929 21.7071L12 20.4142L10.7071 21.7071C10.3166 22.0976 9.68342 22.0976 9.29289 21.7071L7.87258 20.2868L5.5547 21.8321C5.24784 22.0366 4.8533 22.0557 4.52814 21.8817C4.20298 21.7077 4 21.3688 4 21V3C4 2.73478 4.10536 2.48043 4.29289 2.29289ZM6 4V19.1315L7.4453 18.1679C7.84192 17.9035 8.37004 17.9558 8.70711 18.2929L10 19.5858L11.2929 18.2929C11.6834 17.9024 12.3166 17.9024 12.7071 18.2929L14 19.5858L15.2929 18.2929C15.63 17.9558 16.1581 17.9035 16.5547 18.1679L18 19.1315V4H6Z"></path>
  </symbol><symbol  viewBox='0 0 16 16' id='hamburger'>
    <path fill-rule="evenodd" clip-rule="evenodd" d="M2 5C2 4.44772 2.44772 4 3 4H21C21.5523 4 22 4.44772 22 5C22 5.55228 21.5523 6 21 6H3C2.44772 6 2 5.55228 2 5Z"></path><path fill-rule="evenodd" clip-rule="evenodd" d="M2 12C2 11.4477 2.44772 11 3 11H21C21.5523 11 22 11.4477 22 12C22 12.5523 21.5523 13 21 13H3C2.44772 13 2 12.5523 2 12Z"></path><path fill-rule="evenodd" clip-rule="evenodd" d="M2 19C2 18.4477 2.44772 18 3 18H21C21.5523 18 22 18.4477 22 19C22 19.5523 21.5523 20 21 20H3C2.44772 20 2 19.5523 2 19Z"></path>
  </symbol><symbol  viewBox='0 0 16 16' id='heart-filled'>
    <path d="M16.7143 4C14.9095 4 13.4471 4.74936 12.3321 5.97373L12.066 6.28195L12 6.364L11.934 6.28195L11.6679 5.97373C10.5529 4.74936 9.09046 4 7.28571 4C4.25279 4 2 6.78286 2 9.94118C2 12.868 3.87763 15.3592 6.93416 17.4569C7.96638 18.1653 9.06653 18.7793 10.1663 19.2993L10.7784 19.5792L11.2802 19.7926L11.6563 19.9391C11.8782 20.0203 12.1218 20.0203 12.3437 19.9391L12.7198 19.7926L13.2216 19.5792L13.8337 19.2993C14.9335 18.7793 16.0336 18.1653 17.0658 17.4569C20.1224 15.3592 22 12.868 22 9.94118C22 6.78286 19.7472 4 16.7143 4Z"></path>
  </symbol><symbol  viewBox='0 0 16 16' id='heart'>
    <path d="M16.7143 4C14.9095 4 13.4471 4.74936 12.3321 5.97373L12.066 6.28195L12 6.364L11.934 6.28195L11.6679 5.97373C10.5529 4.74936 9.09046 4 7.28571 4C4.25279 4 2 6.78286 2 9.94118C2 12.868 3.87763 15.3592 6.93416 17.4569C7.96638 18.1653 9.06653 18.7793 10.1663 19.2993L10.7784 19.5792L11.2802 19.7926L11.6563 19.9391C11.8782 20.0203 12.1218 20.0203 12.3437 19.9391L12.7198 19.7926L13.2216 19.5792L13.8337 19.2993C14.9335 18.7793 16.0336 18.1653 17.0658 17.4569C20.1224 15.3592 22 12.868 22 9.94118C22 6.78286 19.7472 4 16.7143 4ZM16.7143 6C18.5385 6 20 7.80537 20 9.94118C20 12.0585 18.5026 14.0452 15.9342 15.8078C14.9976 16.4506 13.9884 17.0139 12.9788 17.4912L12.4242 17.745L12 17.926L11.5758 17.745L11.0212 17.4912C10.0116 17.0139 9.00237 16.4506 8.06584 15.8078C5.49737 14.0452 4 12.0585 4 9.94118C4 7.80537 5.46149 6 7.28571 6C8.48096 6 9.42928 6.48593 10.1892 7.32039C10.6578 7.83494 10.9486 8.35071 11.0684 8.65771C11.3996 9.50625 12.6004 9.50625 12.9316 8.65771C13.0514 8.35071 13.3422 7.83494 13.8108 7.32039C14.5707 6.48593 15.519 6 16.7143 6Z"></path>
  </symbol><symbol  viewBox='0 0 16 16' id='home-house'>
    <path fill-rule="evenodd" clip-rule="evenodd" d="M9.87871 3.70711C11.0503 2.53554 12.9498 2.53554 14.1214 3.70711L21.7071 11.2929C21.9931 11.5789 22.0787 12.009 21.9239 12.3827C21.7691 12.7564 21.4045 13 21 13H20V19C20 20.6569 18.6569 22 17 22H14C13.4477 22 13 21.5523 13 21V16H11V21C11 21.5523 10.5523 22 10 22H7.00003C5.34317 22 4.00003 20.6569 4.00003 19V13H3.00003C2.59557 13 2.23093 12.7564 2.07615 12.3827C1.92137 12.009 2.00692 11.5789 2.29292 11.2929L9.87871 3.70711ZM5.35094 11.0633C5.73013 11.2054 6.00003 11.5712 6.00003 12V19C6.00003 19.5523 6.44774 20 7.00003 20H9.00003V15C9.00003 14.4477 9.44774 14 10 14H14C14.5523 14 15 14.4477 15 15V20H17C17.5523 20 18 19.5523 18 19V12C18 11.5712 18.2699 11.2054 18.6491 11.0633L12.7071 5.12132C12.3166 4.7308 11.6834 4.7308 11.2929 5.12132L5.35094 11.0633Z"></path>
  </symbol><symbol  viewBox='0 0 16 16' id='line'>
    <path fill-rule="evenodd" clip-rule="evenodd" d="M4 11H21V13H4V11Z"></path>
  </symbol><symbol  viewBox='0 0 16 16' id='percent'>
    <path fill-rule="evenodd" clip-rule="evenodd" d="M17.5813 4.18628C18.0307 4.50729 18.1348 5.13184 17.8137 5.58125L7.81375 19.5813C7.49274 20.0307 6.86819 20.1348 6.41878 19.8137C5.96937 19.4927 5.86527 18.8682 6.18628 18.4188L16.1863 4.41878C16.5073 3.96937 17.1318 3.86527 17.5813 4.18628Z"></path><path fill-rule="evenodd" clip-rule="evenodd" d="M6 5.99994C4.89543 5.99994 4 6.89537 4 7.99994C4 9.10451 4.89543 9.99994 6 9.99994C7.10457 9.99994 8 9.10451 8 7.99994C8 6.89537 7.10457 5.99994 6 5.99994ZM2 7.99994C2 5.7908 3.79086 3.99994 6 3.99994C8.20914 3.99994 10 5.7908 10 7.99994C10 10.2091 8.20914 11.9999 6 11.9999C3.79086 11.9999 2 10.2091 2 7.99994Z"></path><path fill-rule="evenodd" clip-rule="evenodd" d="M18 14C16.8954 14 16 14.8954 16 16C16 17.1046 16.8954 18 18 18C19.1046 18 20 17.1046 20 16C20 14.8954 19.1046 14 18 14ZM14 16C14 13.7909 15.7909 12 18 12C20.2091 12 22 13.7909 22 16C22 18.2091 20.2091 20 18 20C15.7909 20 14 18.2091 14 16Z"></path>
  </symbol><symbol  viewBox='0 0 16 16' id='person'>
    <style type="text/css">.st0{fill-rule:evenodd;clip-rule:evenodd;}</style><path class="st0" d="M20.1,15.5c-2.5-1-5.2-1.5-8.1-1.5s-5.7,0.5-8.1,1.5C2.7,16,2,17.1,2,18.3V21c0,0.5,0.5,1,1,1h18
	c0.5,0,1-0.5,1-1v-2.7C22,17.1,21.3,16,20.1,15.5z M20,20H4v-1.7c0-0.4,0.2-0.8,0.6-0.9C6.8,16.5,9.3,16,12,16s5.2,0.5,7.4,1.4
	c0.4,0.2,0.6,0.5,0.6,0.9V20z"></path><path class="st0" d="M16.9,6.2c-0.3-2.1-2-3.8-4.2-4.2c-2.1-0.3-4.2,0.7-5.2,2.7c-1,1.9-0.6,4.3,0.9,5.8c1.5,1.5,3.9,1.9,5.8,0.9
	C16.2,10.5,17.3,8.3,16.9,6.2z M13.4,9.7c-1.2,0.6-2.6,0.4-3.5-0.5C9,8.2,8.7,6.8,9.3,5.6c0.6-1.2,1.8-1.8,3.1-1.6
	c1.3,0.2,2.3,1.2,2.5,2.5C15.2,7.8,14.5,9.1,13.4,9.7z"></path>
  </symbol><symbol  viewBox='0 0 16 16' id='printer'>
    <path fill-rule="evenodd" clip-rule="evenodd" d="M5 10C4.44772 10 4 10.4477 4 11V17C4 17.5523 4.44772 18 5 18H6V17C6 16.4477 6.44772 16 7 16H17C17.5523 16 18 16.4477 18 17V18H19C19.5523 18 20 17.5523 20 17V11C20 10.4477 19.5523 10 19 10H5ZM16 18V19C16 19.5523 16.4477 20 17 20H19C20.6569 20 22 18.6569 22 17V11C22 9.34315 20.6569 8 19 8H5C3.34315 8 2 9.34315 2 11V17C2 18.6569 3.34315 20 5 20H7C7.55228 20 8 19.5523 8 19V18H16Z"></path><path fill-rule="evenodd" clip-rule="evenodd" d="M6 3C6 2.44772 6.44772 2 7 2H17C17.5523 2 18 2.44772 18 3V9C18 9.55228 17.5523 10 17 10H7C6.44772 10 6 9.55228 6 9V3ZM8 4V8H16V4H8Z"></path><path fill-rule="evenodd" clip-rule="evenodd" d="M6 17C6 16.4477 6.44772 16 7 16H17C17.5523 16 18 16.4477 18 17V21C18 21.5523 17.5523 22 17 22H7C6.44772 22 6 21.5523 6 21V17ZM8 18V20H16V18H8Z"></path><path fill-rule="evenodd" clip-rule="evenodd" d="M16 13C16 12.4477 16.4477 12 17 12C17.5523 12 18 12.4477 18 13C18 13.5523 17.5523 14 17 14C16.4477 14 16 13.5523 16 13Z"></path>
  </symbol><symbol  viewBox='0 0 16 16' id='profile'>
    <path fill-rule="evenodd" clip-rule="evenodd" d="M16 9C16 11.2091 14.2091 13 12 13C9.79086 13 8 11.2091 8 9C8 6.79086 9.79086 5 12 5C14.2091 5 16 6.79086 16 9ZM14 9C14 10.1046 13.1046 11 12 11C10.8954 11 10 10.1046 10 9C10 7.89543 10.8954 7 12 7C13.1046 7 14 7.89543 14 9Z"></path><path fill-rule="evenodd" clip-rule="evenodd" d="M12 1C5.92487 1 1 5.92487 1 12C1 18.0751 5.92487 23 12 23C18.0751 23 23 18.0751 23 12C23 5.92487 18.0751 1 12 1ZM3 12C3 14.0902 3.71255 16.014 4.90798 17.5417C6.55245 15.3889 9.14627 14 12.0645 14C14.9448 14 17.5092 15.3531 19.1565 17.4583C20.313 15.9443 21 14.0524 21 12C21 7.02944 16.9706 3 12 3C7.02944 3 3 7.02944 3 12ZM12 21C9.84977 21 7.87565 20.2459 6.32767 18.9878C7.59352 17.1812 9.69106 16 12.0645 16C14.4084 16 16.4833 17.1521 17.7538 18.9209C16.1939 20.2191 14.1881 21 12 21Z"></path>
  </symbol><symbol  viewBox='0 0 16 16' id='search'>
    <path fill-rule="evenodd" clip-rule="evenodd" d="M8.5 3.5C5.73868 3.5 3.5 5.73868 3.5 8.5C3.5 11.262 5.7386 13.5 8.5 13.5C11.2621 13.5 13.5 11.2621 13.5 8.5C13.5 5.7386 11.262 3.5 8.5 3.5ZM1.5 8.5C1.5 4.63412 4.63412 1.5 8.5 1.5C12.3668 1.5 15.5 4.6342 15.5 8.5C15.5 12.3667 12.3667 15.5 8.5 15.5C4.6342 15.5 1.5 12.3668 1.5 8.5Z"></path><path fill-rule="evenodd" clip-rule="evenodd" d="M15.5458 15.5478C16.3273 14.7663 17.5935 14.7663 18.375 15.5478L21.91 19.0838C21.9101 19.0838 21.91 19.0837 21.91 19.0838C22.6907 19.8645 22.6923 21.1307 21.91 21.912C21.1287 22.6943 19.8625 22.6927 19.0818 21.912L15.5458 18.376C14.7648 17.595 14.767 16.3286 15.5458 15.5478Z"></path><path fill-rule="evenodd" clip-rule="evenodd" d="M12.2929 12.2929C12.6834 11.9024 13.3166 11.9024 13.7071 12.2929L16.9669 15.5527C17.3574 15.9432 17.3574 16.5764 16.9669 16.9669C16.5764 17.3574 15.9432 17.3574 15.5527 16.9669L12.2929 13.7071C11.9024 13.3166 11.9024 12.6834 12.2929 12.2929Z"></path>
  </symbol><symbol  viewBox='0 0 16 16' id='zoom-out-line'>
    <path d="M12.0207 11.078L14.876 13.9327L13.9327 14.876L11.078 12.0207C10.0159 12.8722 8.6947 13.3353 7.33337 13.3334C4.02137 13.3334 1.33337 10.6454 1.33337 7.33337C1.33337 4.02137 4.02137 1.33337 7.33337 1.33337C10.6454 1.33337 13.3334 4.02137 13.3334 7.33337C13.3353 8.6947 12.8722 10.0159 12.0207 11.078ZM10.6834 10.5834C11.5294 9.71329 12.0019 8.54699 12 7.33337C12 4.7547 9.91137 2.66671 7.33337 2.66671C4.7547 2.66671 2.66671 4.7547 2.66671 7.33337C2.66671 9.91137 4.7547 12 7.33337 12C8.54699 12.0019 9.71329 11.5294 10.5834 10.6834L10.6834 10.5834ZM4.6667 6.6667H10V8.00003H4.6667V6.6667Z"></path>
  </symbol></svg>