<svg width="24" height="24" viewBox="0 0 24 24" fill="none" xmlns="http://www.w3.org/2000/svg">
<path fill-rule="evenodd" clip-rule="evenodd" d="M2.9362 7.85751C3.01096 6.8109 3.88184 6 4.93112 6H19.0689C20.1182 6 20.989 6.81089 21.0638 7.85751L21.9209 19.8575C21.9996 20.9593 21.1703 21.9162 20.0685 21.9949C20.0211 21.9983 19.9736 22 19.926 22H4.07397C2.96941 22 2.07397 21.1046 2.07397 20C2.07397 19.9525 2.07567 19.9049 2.07906 19.8575L2.9362 7.85751ZM19.0689 8H4.93112L4.07397 20H19.926L19.0689 8Z" fill="#1A1A1A"/>
<path fill-rule="evenodd" clip-rule="evenodd" d="M7 7C7 4.23858 9.23858 2 12 2C14.7614 2 17 4.23858 17 7V10C17 10.5523 16.5523 11 16 11C15.4477 11 15 10.5523 15 10V7C15 5.34315 13.6569 4 12 4C10.3431 4 9 5.34315 9 7V10C9 10.5523 8.55228 11 8 11C7.44772 11 7 10.5523 7 10V7Z" fill="#1A1A1A"/>
</svg>
