<svg width="24" height="24" viewBox="0 0 24 24" fill="none" xmlns="http://www.w3.org/2000/svg">
<path fill-rule="evenodd" clip-rule="evenodd" d="M5 4C4.44772 4 4 4.44772 4 5V19C4 19.5523 4.44772 20 5 20H19C19.5523 20 20 19.5523 20 19V5C20 4.44772 19.5523 4 19 4H5ZM2 5C2 3.34315 3.34315 2 5 2H19C20.6569 2 22 3.34315 22 5V19C22 20.6569 20.6569 22 19 22H5C3.34315 22 2 20.6569 2 19V5Z" fill="black"/>
<path fill-rule="evenodd" clip-rule="evenodd" d="M17.7071 8.29289C18.0976 8.68342 18.0976 9.31658 17.7071 9.70711L12.1213 15.2929C10.9497 16.4645 9.05025 16.4645 7.87868 15.2929L6.29289 13.7071C5.90237 13.3166 5.90237 12.6834 6.29289 12.2929C6.68342 11.9024 7.31658 11.9024 7.70711 12.2929L9.29289 13.8787C9.68342 14.2692 10.3166 14.2692 10.7071 13.8787L16.2929 8.29289C16.6834 7.90237 17.3166 7.90237 17.7071 8.29289Z" fill="black"/>
</svg>
