<?xml version="1.0" encoding="utf-8"?>
<!-- Generator: Adobe Illustrator 26.5.0, SVG Export Plug-In . SVG Version: 6.00 Build 0)  -->
<svg version="1.1" id="Layer_1" xmlns="http://www.w3.org/2000/svg" xmlns:xlink="http://www.w3.org/1999/xlink" x="0px" y="0px"
	 viewBox="0 0 24 24" style="enable-background:new 0 0 24 24;" xml:space="preserve">
<style type="text/css">
	.st0{fill-rule:evenodd;clip-rule:evenodd;fill:#1A1A1A;}
</style>
<path class="st0" d="M9,17v-6c0-0.5,0.5-1,1-1s1,0.5,1,1v6c0,0.5-0.5,1-1,1S9,17.5,9,17z"/>
<path class="st0" d="M13,17v-6c0-0.5,0.5-1,1-1s1,0.5,1,1v6c0,0.5-0.5,1-1,1S13,17.5,13,17z"/>
<path class="st0" d="M20,6h-4V4.3C16,3.2,15.1,2,13.8,2h-3.6C8.9,2,8,3.2,8,4.3V6H4C3.5,6,3,6.5,3,7s0.5,1,1,1h1v11c0,1.7,1.3,3,3,3
	h8c1.7,0,3-1.3,3-3V8h1c0.5,0,1-0.5,1-1S20.5,6,20,6z M10,4.3c0-0.1,0-0.2,0.1-0.3c0,0,0.1-0.1,0.1-0.1h3.6c0,0,0.1,0,0.1,0.1
	c0,0,0.1,0.2,0.1,0.3V6h-4V4.3z M17,19c0,0.5-0.5,1-1,1H8c-0.5,0-1-0.5-1-1V8h10V19z"/>
</svg>
