<svg width="24" height="24" viewBox="0 0 24 24" fill="none" xmlns="http://www.w3.org/2000/svg">
<path d="M16.7143 4C14.9095 4 13.4471 4.74936 12.3321 5.97373L12.066 6.28195L12 6.364L11.934 6.28195L11.6679 5.97373C10.5529 4.74936 9.09046 4 7.28571 4C4.25279 4 2 6.78286 2 9.94118C2 12.868 3.87763 15.3592 6.93416 17.4569C7.96638 18.1653 9.06653 18.7793 10.1663 19.2993L10.7784 19.5792L11.2802 19.7926L11.6563 19.9391C11.8782 20.0203 12.1218 20.0203 12.3437 19.9391L12.7198 19.7926L13.2216 19.5792L13.8337 19.2993C14.9335 18.7793 16.0336 18.1653 17.0658 17.4569C20.1224 15.3592 22 12.868 22 9.94118C22 6.78286 19.7472 4 16.7143 4ZM16.7143 6C18.5385 6 20 7.80537 20 9.94118C20 12.0585 18.5026 14.0452 15.9342 15.8078C14.9976 16.4506 13.9884 17.0139 12.9788 17.4912L12.4242 17.745L12 17.926L11.5758 17.745L11.0212 17.4912C10.0116 17.0139 9.00237 16.4506 8.06584 15.8078C5.49737 14.0452 4 12.0585 4 9.94118C4 7.80537 5.46149 6 7.28571 6C8.48096 6 9.42928 6.48593 10.1892 7.32039C10.6578 7.83494 10.9486 8.35071 11.0684 8.65771C11.3996 9.50625 12.6004 9.50625 12.9316 8.65771C13.0514 8.35071 13.3422 7.83494 13.8108 7.32039C14.5707 6.48593 15.519 6 16.7143 6Z" fill="black"/>
</svg>
