<?xml version="1.0" encoding="utf-8"?>
<!-- Generator: Adobe Illustrator 26.5.0, SVG Export Plug-In . SVG Version: 6.00 Build 0)  -->
<svg version="1.1" id="Layer_1" xmlns="http://www.w3.org/2000/svg" xmlns:xlink="http://www.w3.org/1999/xlink" x="0px" y="0px"
	 viewBox="0 0 24 24" style="enable-background:new 0 0 24 24;" xml:space="preserve">
<style type="text/css">
	.st0{fill-rule:evenodd;clip-rule:evenodd;}
</style>
<path class="st0" d="M20.1,15.5c-2.5-1-5.2-1.5-8.1-1.5s-5.7,0.5-8.1,1.5C2.7,16,2,17.1,2,18.3V21c0,0.5,0.5,1,1,1h18
	c0.5,0,1-0.5,1-1v-2.7C22,17.1,21.3,16,20.1,15.5z M20,20H4v-1.7c0-0.4,0.2-0.8,0.6-0.9C6.8,16.5,9.3,16,12,16s5.2,0.5,7.4,1.4
	c0.4,0.2,0.6,0.5,0.6,0.9V20z"/>
<path class="st0" d="M16.9,6.2c-0.3-2.1-2-3.8-4.2-4.2c-2.1-0.3-4.2,0.7-5.2,2.7c-1,1.9-0.6,4.3,0.9,5.8c1.5,1.5,3.9,1.9,5.8,0.9
	C16.2,10.5,17.3,8.3,16.9,6.2z M13.4,9.7c-1.2,0.6-2.6,0.4-3.5-0.5C9,8.2,8.7,6.8,9.3,5.6c0.6-1.2,1.8-1.8,3.1-1.6
	c1.3,0.2,2.3,1.2,2.5,2.5C15.2,7.8,14.5,9.1,13.4,9.7z"/>
</svg>
